<svg xmlns="http://www.w3.org/2000/svg" width="550.8" height="550.8" viewBox="0 0 550.8 550.8"><path d="M280.54 414.8c-5.6 0-9.37.53-11.36 1.07v35.85c2.35.55 5.23.73 9.2.73 14.58 0 23.6-7.4 23.6-19.82 0-11.17-7.75-17.84-21.44-17.84z"/><path d="M475.1 132c-.04-2.53-.83-5.03-2.57-7L366.33 3.7c-.03-.04-.06-.05-.1-.08-.62-.7-1.35-1.3-2.13-1.8-.23-.16-.47-.3-.7-.42-.7-.37-1.4-.67-2.14-.9l-.58-.2c-.8-.18-1.63-.3-2.48-.3h-261C85.3 0 75.6 9.7 75.6 21.6v507.6c0 11.9 9.7 21.6 21.6 21.6h356.4c11.92 0 21.6-9.7 21.6-21.6v-396c0-.4-.06-.8-.1-1.2zM220.56 510.8c-8.46 2.88-24.5 6.84-40.53 6.84-22.16 0-38.2-5.57-49.36-16.4-11.17-10.44-17.3-26.3-17.12-44.12.2-40.36 29.55-63.4 69.37-63.4 15.67 0 27.74 3.03 33.68 5.92l-5.76 22c-6.67-2.9-14.95-5.25-28.3-5.25-22.87 0-40.16 12.9-40.16 39.3 0 25 15.67 39.8 38.2 39.8 6.3 0 11.34-.7 13.5-1.8v-25.4h-18.74v-21.5h45.23v63.93zM318 460.7c-9.35 8.85-23.22 12.8-39.44 12.8-3.6 0-6.84-.18-9.36-.54v43.42h-27.22V396.6c8.47-1.44 20.36-2.53 37.12-2.53 16.93 0 29 3.25 37.1 9.74 7.76 6.2 12.98 16.3 12.98 28.1 0 11.9-3.97 22-11.17 28.9zm87.56 55.7l-11-22c-4.5-8.46-7.37-14.76-10.8-21.8h-.35c-2.5 7.04-5.6 13.34-9.3 21.8l-10.1 22h-31.4l35.14-61.45-33.87-60h31.53l10.6 22.2c3.6 7.4 6.3 13.34 9.2 20.18h.36c2.9-7.74 5.23-13.16 8.3-20.17L404.1 395h31.37l-34.23 59.27 36.02 62.15h-31.7zM97.2 366.74V21.6h250.2v110.52c0 5.96 4.83 10.8 10.8 10.8h95.4v223.83H97.2z"/><path d="M383.2 245.54l-5.17-19.6c-13.68 3.27-30.97 9.18-50 19.6h55.18zm2.38 9h-72.52c-22 14.33-45.57 34.83-68.24 64.42h157.8l-17.04-64.42zm-115.9-83.02c-2.63-7.1-5.5-14.84-8.34-22.58h-90L160.6 189.6h87.6c3.28-7.87 11.14-14.37 21.46-18.1zm19.92 83.02H143.45l-17.02 64.42h101.23c12.26-18.04 32.64-43.08 61.94-64.42z"/><path d="M375.5 216.4l-17.8-67.46h-38.5c-3.13 7.5-6.38 15.15-9.56 22.62 13.75 4.94 23.2 14.7 23.2 26.1 0 16.3-19.35 29.56-43.22 29.56-20.67 0-37.9-9.96-42.17-23.2H156.8l-11 41.52H303c20.4-12.8 44.47-23.48 72.53-29.15z"/><path d="M283.45 181c-10.3 1.8-17.94 7.88-17.94 15.16 0 8.68 10.8 15.7 24.1 15.7 13.4 0 24.1-7.02 24.1-15.7 0-7.32-7.7-13.4-18-15.17 9.57-22.3 26.6-62.3 30.05-72.4 1.5-4 2.35-8.3 2.35-12.8 0-20.3-16.4-36.7-36.6-36.7-20.26 0-36.64 16.4-36.64 36.62 0 3.93.65 7.73 1.8 11.3 1.88 6.63 18.07 50.3 26.87 73.9zm20.8 15.16c0 5.27-6.55 9.56-14.64 9.56s-14.6-4.3-14.6-9.56c0-4.4 4.58-8.05 10.7-9.17l3.47 9.1 4-9.3c6.4 1.04 11.17 4.8 11.17 9.3zM291.4 72.56c12.9 0 23.36 10.47 23.36 23.38 0 12.9-10.46 23.34-23.36 23.34-12.9 0-23.36-10.45-23.36-23.34 0-12.9 10.45-23.37 23.36-23.37z"/></svg>