<svg xmlns="http://www.w3.org/2000/svg" viewBox="0 0 21.03 20.62" width="21.03" height="20.62"><path d="M3.55 10.97h13.93c.27 0 .54.18.6.4l2.57 8.16c.13.4-.07.75-.44.75H.9c-.37 0-.56-.34-.43-.75L3 11.37c.06-.22.33-.4.6-.4z" fill="#fff" stroke="#000" stroke-width=".69"/><path d="M6.68.3h7.23c.9 0 1.6.9 1.6 2.04v5.18c0 1.14-.7 2.05-1.6 2.05L12 9.6l-1.75 6.56-1.6-6.56-1.97-.03c-.88 0-1.58-.9-1.58-2.05V2.34C5.1 1.2 5.8.3 6.65.3z" fill="#444" stroke="#000" stroke-width=".58"/><path d="M3.44 12.77c.26-.12 0 0 .2-.08l.06-.1h.08l.06-.1H5.7c.1.2 0 0 .07.1v.1h.04c.1.1 0 0 0 .1.1.2 0-.1.1.1v.2H6v.1c.1.1 0-.2.1.1v.5h.1v.2c.1.2 0-.05.1.1v.2l.1.05v.1h.1v.1l.08.1.07.06h.03c.2.03-.06-.05.07 0H7v.1h.9c.04 0 .05 0 .07.04H8s0 .03.04.04h.08c.05.1 0 .1.08.1h.06V15h.03v.1c.1.07-.1 0 0 .07v.1c0 .06 0 0 0 0v.17l.1.1h.1v.08H9l.07.1h.05l.04.04h.14l.1.08c.2.1 0 0 .1.1l.1.02h.3l.1.08.1.07c.1 0 .1 0 .1.07l.1.04.1.03h.1s0-.05 0 0h.3c.2.06-.1 0 .1.05h.2v.06h.5l.1-.03h.5c.1 0 .1-.1.2-.1h.4l.1-.02h.85c.14 0 0 0 .13.06h.1v.03h.38v.1l.1.1h.1l.1.1.05.06.1.07.1.1h.1l.05.03c.04.06.06.04.1.1v.1h.05v.1h.1v.15l.05.08c.1 0 .1.02.1.1l.1.02h.1s0 .07.08.1h.1s.07 0 .08.07h.3l.1.03h.26l.12.08h.04c.07 0 .1.1.1.1h.1c.07 0 .1 0 .1.07h.2s0 .05.08.05h1v.1" fill="none" stroke="#000" stroke-width=".5" stroke-linecap="round" stroke-dasharray=".5 1" stroke-dashoffset=".5" paint-order="markers stroke fill"/></svg>