<svg width="26.271" height="39.795" viewBox="0 0 6.951 10.529" xmlns="http://www.w3.org/2000/svg">
    <path d="M5.03 3.197c-.101-.112-.538-.09-.652-.089-.122.404-.34.9-.87.931-.708-.092-.89-.855-.905-.925-.44 0-.597.058-.683.17-.334 1.265-.315 2.262-.319 3.217 1.97.23 2.103.277 3.763-.043-.086-1.248.195-2.42-.333-3.26z" fill="#59f"/>
    <path d="M4.378 3.106c-.468-.017-1.151.005-1.776.002 0 0 .163.834.907.931.53-.032.748-.529.87-.933z" fill="#fbecd8"/>
    <path d="M5.28 6.474c-1.55.297-1.74.254-3.576.039.4 1.97 3.31 2.142 3.577-.039z" fill="#a05a2c"/>
    <path d="M5.03 3.197c-.045.042-.799-.061-.994.916.22.335.594.806.757 1.01.616-.3.767-.356 1.245-.882-.38-.52-.72-.888-1.007-1.044zM1.92 3.284c.046.042.8-.06.995.917-.22.335-.594.806-.757 1.01-.616-.3-.767-.357-1.245-.882.38-.521.72-.889 1.007-1.044z" fill="#59f"/>
    <g fill="#520">
        <path d="M2.79 3.155C2.495 4.63 2.28 5.301 1.49 6.786l-.02-.599c.519-1.351.683-1.595.872-3.007zM4.179 3.138c.294 1.51.51 2.198 1.298 3.719l.02-.614c-.518-1.384-.683-1.633-.871-3.08z"/>
    </g>
    <path d="M5.21 6.568c-.05.045-.074.097-.03.181.051.192.206.152.436.033.152.606.364.544.508.155.176.227.456.153.428-.24.302.304.415.042.397-.12-.095-.329-.28-.456-.377-.618-.042.03-.264-1.062-.45-1.492-.056-.076-.077-.121-.123-.183-.234.251-.422.451-.983.724.023.018-.007.057.006.102.091.6.507 1.252.442 1.253-.056.095-.181.142-.253.206zM1.74 6.655c.05.045.075.098.03.182-.05.191-.205.151-.435.032-.153.607-.364.544-.508.155-.176.228-.456.154-.429-.24-.302.304-.414.042-.396-.12.094-.328.279-.456.377-.618.042.03.264-1.061.45-1.492.056-.076.077-.12.123-.183.234.251.379.452.94.724.012.027.037.072.037.102-.091.601-.507 1.252-.442 1.253.056.095.181.142.253.206z" fill="#fbecd8"/>
    <path d="M4.008 1.212c-.123.013-.233.13-.227.288 0 .13.125.202.236.202.148 0 .223-.1.217-.23 0-.105-.097-.26-.226-.26z" fill="#fff"/>
    <path d="M3.98 1.425c-.04 0-.082.053-.078.092-.004.036.06.071.1.074.046 0 .077-.044.077-.083 0-.055-.045-.083-.1-.083z"/>
    <path d="M2.566 2.886c-.042.017-.51-.177-.6-.657-.212-.246-.211-.675.038-.986.038-.327.119-.372.262-.575.06-.361.36-.48.667-.513.328-.185.683-.2 1.026-.07.347-.029.536.138.536.138.157.054.309.112.349.255.222.101.144.223.246.325.052.166.06.378-.006.533.144.326.034.5-.055.9-.1.406-.2.655-.553.695-1.046.047-1.073.005-1.91-.045z" fill="#520"/>
    <path d="M2.193 2.101c.015.923.675 1.201 1.353 1.189.637.005 1.203-.284 1.253-1.193.54-.013.42-.809-.008-.448a3.792 3.792 0 00-.154-.927c-.205-.023-.493-.113-.898.02.115-.09.239-.152.349-.301C3.967.38 3.556.56 3.03.87c.104-.233.087-.222.132-.384-.342.139-.47.24-.817.477-.071.216-.178.472-.187.668-.456-.254-.541.567.035.47z" fill="#fbecd8"/>
    <path d="M2.926 1.192c-.141.015-.267.148-.26.326 0 .148.143.23.27.23.17 0 .256-.18.249-.328 0-.118-.111-.228-.26-.228z" fill="#fff"/>
    <path d="M2.972 1.368c-.062 0-.13.087-.123.151-.006.06.096.116.158.122.075 0 .123-.073.123-.137 0-.091-.071-.136-.158-.136z"/>
    <path d="M3.91 1.196c-.14.015-.266.148-.259.326 0 .149.143.23.27.23.17 0 .256-.179.249-.327 0-.119-.112-.229-.26-.229z" fill="#fff"/>
    <path d="M3.975 1.367c-.057 0-.118.09-.112.157-.006.06.087.12.143.125.068 0 .112-.075.112-.141 0-.094-.065-.141-.143-.141zM3.517 1.97c-.305.068-.407-.126-.407-.126s-.01.107.092.202c.13.083.315-.075.315-.075zM4.023 2.011c-.168.181-.254.39-1.141.355 0 0 .255.261.676.215.448-.112.465-.57.465-.57z"/>
    <path d="M3.39 2.557s.077-.09.17-.14c.099-.017.183.05.183.05s-.16.098-.352.09z" fill="#d40000"/>
    <path d="M3.05 1.454c-.026 0-.04.014-.037.04 0 .02.014.034.037.032.03 0 .033-.015.033-.04.002-.017-.01-.032-.032-.032zM4.053 1.44c-.027 0-.04.014-.038.04 0 .02.015.034.038.032.03 0 .033-.016.033-.04.002-.018-.01-.032-.033-.032z" fill="#f9f9f9"/>
    <path d="M3.684 9.783c-.114.246-.203.552-.192.63.806.129 1.206.17 2.23.02.033-.399-.168-.587-.244-.669-.359.023-1.391.03-1.794.029z" fill="#c44f00"/>
    <path d="M5.282 6.903c-.835-.425-1.544.084-1.544.084-.156.546-.192.757-.217 1.897.776.036 1.303.026 1.985-.036-.062-.852-.04-1.18-.224-1.944z" fill="#a05a2c"/>
    <path d="M3.733 9.783l.03-.889c.764.02 1.144.002 1.622-.036l.047.902c-.546.042-1.08.04-1.699.024z" fill="#fbecd8"/>
    <path d="M3.342 9.759c.114.245.203.552.192.63-.806.128-1.206.17-2.23.02-.033-.399.168-.588.244-.669.359.022 1.391.03 1.794.028z" fill="#c44f00"/>
    <path d="M1.744 6.879c.835-.425 1.544.084 1.544.084.156.546.192.757.217 1.897-.776.036-1.303.026-1.985-.036.062-.852.04-1.181.224-1.944z" fill="#a05a2c"/>
    <path d="M3.293 9.759l-.03-.89c-.764.02-1.144.002-1.622-.035l-.047.901c.546.042 1.08.04 1.699.024z" fill="#fbecd8"/>
</svg>