<svg width="27.8" height="40" viewBox="0 0 7.36 10.58" xmlns="http://www.w3.org/2000/svg">
    <path d="M2.72 2.92c-.04.02-.52-.18-.6-.67-.22-.25-.22-.68.03-1 .04-.32.12-.37.26-.58.07-.36.37-.48.68-.51.33-.2.69-.2 1.04-.07.35-.03.54.14.54.14.15.05.3.1.35.25.22.1.14.23.25.33.05.17.06.38 0 .54.14.33.03.5-.06.9-.1.42-.2.67-.56.71-1.06.05-1.09 0-1.93-.04z" fill="#520"/>
    <path d="M2.13 3.3c.04.05.8-.06 1 .92-.23.34-.6.8-.76 1.01-.62-.3-.77-.35-1.25-.88a3.7 3.7 0 011-1.04z" fill="#59f"/>
    <path d="M1.95 6.68c.05.04.07.1.03.18-.05.19-.2.15-.44.03-.15.6-.36.54-.5.16-.18.22-.46.15-.43-.24-.3.3-.42.04-.4-.13.1-.32.28-.45.38-.61.04.03.26-1.06.45-1.5l.12-.18c.23.25.5.5 1.06.77-.03.02-.06.03-.08.06-.1.6-.5 1.25-.44 1.25.05.1.18.14.25.2zM2.55 2.85c.25.36.7.48 1.16.47.38 0 .73-.1.97-.36h-.03c-1.06.05-1.09 0-1.93-.05a.63.63 0 01-.17-.06z" fill="#fbecd8"/>
    <path d="M5.23 3.22c-.05.04-.8-.06-1 .92.22.33.6.8.76 1 .61-.3.77-.35 1.24-.88a3.7 3.7 0 00-1-1.04z" fill="#59f"/>
    <path d="M5.4 6.59c-.04.04-.07.1-.02.18.05.2.2.15.43.03.15.61.37.55.51.16.18.23.46.15.43-.24.3.3.41.04.4-.12-.1-.33-.28-.46-.38-.62-.04.03-.27-1.06-.45-1.5l-.13-.17c-.23.25-.49.49-1.05.76l.08.06c.09.6.5 1.25.44 1.25-.06.1-.18.15-.25.21z" fill="#fbecd8"/>
    <path d="M4.73 3.13h-.15c-.24.26-.3.24-.83.27-.63 0-.73-.1-.93-.26H2.8c-.44 0-.6.05-.68.17-.33 1.25-.32 2.25-.32 3.2 1.96.23 2.1.28 3.75-.04-.09-1.25.2-2.41-.33-3.25-.08-.08-.32-.1-.5-.1z" fill="#59f"/>
    <path d="M4.58 3.13c-.47-.02-1.15 0-1.77 0 .21.16.3.27.94.27.53-.03.59-.02.83-.27z" fill="#fbecd8"/>
    <path d="M5.48 6.48c-1.55.3-1.74.26-3.57.04.08 1.25.18 1.5 1.84 1.52 1.73.02 1.66-.28 1.73-1.56z" fill="#a05a2c"/>
    <path d="M3.83 9.84c-.12.24-.2.55-.2.63.81.13 1.21.17 2.24.02.03-.4-.17-.59-.25-.67-.36.02-1.39.03-1.8.03z" fill="#c44f00"/>
    <path d="M5.43 6.96c-.84-.43-1.55.08-1.55.08-.15.55-.19.76-.22 1.9.78.03 1.3.02 1.99-.04-.06-.85-.04-1.18-.22-1.94z" fill="#a05a2c"/>
    <path d="M3.88 9.84l.03-.9c.76.03 1.14.01 1.62-.03l.05.9c-.55.05-1.08.04-1.7.03z" fill="#fbecd8"/>
    <path d="M3.5 9.84c.12.24.2.55.2.63-.81.13-1.21.17-2.24.02-.03-.4.17-.59.25-.67.36.02 1.39.03 1.8.03z" fill="#c44f00"/>
    <path d="M1.9 6.96c.84-.43 1.55.08 1.55.08.15.55.19.76.21 1.9-.77.03-1.3.02-1.98-.04.06-.85.04-1.18.22-1.94z" fill="#a05a2c"/>
    <path d="M3.45 9.84l-.03-.9c-.76.03-1.14.01-1.62-.03l-.05.9c.55.05 1.08.04 1.7.03z" fill="#fbecd8"/>
    <path d="M2.34 6.95c.96.2 2.24.24 2.82.02-.06-1.39.49-3.13-.53-3.9-.75 0-1.06 0-1.89.09-1.09.77-.47 2.57-.4 3.79z" fill="#c87137"/>
    <path d="M2.74 3.16c.19.3.18.55.32 1.26l1.6.04c-.04-.63.25-.98-.03-1.38-.4-.12-1.3-.39-1.89.08z" fill="#d38d5f"/>
    <path d="M3.13 3.95c.13.48.08 1.2.08 1.2h.34s0-.68-.05-1.2z" fill="#803300"/>
    <path d="M2.12 6.25l-.03-.5s.19-.07.19-.24l.13-.02c.04.17.2.22.2.22l.04.48c-.17.1-.3.15-.53.05z" fill="#ac9393"/>
    <path d="M2.03 6.18c.34.04.43.07.7-.05l.02.62c-.31.12-.35.1-.64.02z" fill="#d38d5f"/>
    <path d="M2.28 5.51l.13-.02v-.12l-.14.02zM3.3 4.97v.3l.13-.02.02-.29z" fill="#483737"/>
    <path d="M4.15 3.95c.13.48.08 1.2.08 1.2h.35s0-.69-.06-1.2z" fill="#803300"/>
    <path d="M4.33 4.97v.3l.12-.02.02-.3z" fill="#483737"/>
    <path d="M4.72 6.19l.02-.5s.2-.05.22-.22h.13c.03.18.19.24.19.24l-.03.48c-.18.08-.3.11-.53 0z" fill="#ac9393"/>
    <path d="M4.64 6.1c.33.09.42.12.7.04l-.1.62c-.32.08-.35.05-.63-.06z" fill="#038d5f"/>
    <path d="M4.96 5.47h.13l.02-.11h-.15z" fill="#483737"/>
</svg>