<svg xmlns="http://www.w3.org/2000/svg" width="19.94" height="39.83" viewBox="0 0 5.28 10.54">
  <path d="M1.14 3.66L.96 4.73s-.51.7-.5 1.82c1.99.23 2.12.28 3.8-.04-.1-1.21-.3-1.67-.3-1.67s-.36-1.2-.9-1.7H2.03c-.24.13-.42.42-.9.52z" fill="#59f"/>
  <path d="M2.03 3.13L1.25 3l-.07.66c.44-.1.62-.38.85-.52z" fill="#fbecd8"/>
  <path d="M4.17 6.52c-1.56.3-1.75.26-3.6.04.4 1.99 3.33 2.16 3.6-.04z" fill="#a05a2c"/>
  <path d="M1.38 9.89c-.23.01-.4.02-.48.04-.25.1-.35.2-.3.48 0 0 1.38.31 3.09-.04l-.22-.59c-.45.02-1.79-.02-1.79-.02-.08.07-.07.12-.3.13z" fill="#c44f00"/>
  <path d="M3.1 6.96c-.43-.37-1.38-.13-1.43.07 0 0-.56 1.1-.5 1.66.04.2.06.18.07.3.76.04.91.06 2.14 0l-.03-.24a2 2 0 00-.26-1.8z" fill="#a05a2c"/>
  <path d="M1.75 9.76c.72.05.98.06 1.61.03l-.1-.8c-.59.02-.93.03-1.82 0zM.75.48c-.21.2-.36.5-.4.96 0 0-.33-.1-.35.24.02.39.3.24.3.24.06.8.5 1.2 1.8 1.24.34 0 .6-.13.8-.32l-.32-.14s-.2-.17-.59 0c0 0 .1-.5.07-.8.28.09.39-.08.41-.26 0 0-.13-.34-.42.02-.11-.29-.04-.56-.18-.7-.03-.26-.46-.37-.7-.27C1.17.7 1 .52.75.48z" fill="#fbecd8"/>
  <path d="M2.96 3.4s-.56-.6-1.38.01c-.07.32-.06 1.06-.06 1.06.57.2.95.26 1.52.07.02-.53-.08-1.14-.08-1.14z" fill="#59f"/>
  <path d="M2.98 3.28a4 4 0 00-1.33.6c-.26.29-.4.83-.4 1.2.02.54.58 1.02 1.07 1.13.54.06 1.2-.1 1.2-.1l.12.33s-.9.13-1.38.01c-.65-.23-1.21-.73-1.23-1.34.01-.56.18-1.13.48-1.4a2.89 2.89 0 011.39-.68c.04.09.07.16.08.25z" fill="#520"/>
  <path d="M2.68 3.43c.64 1.47.82 3.44.82 3.44.76.26 1.44 0 1.78-.28-.05-1.45 0-2.8-1.03-3.53-.6-.17-1.06-.58-1.56-.13z" fill="#c87137"/>
  <path d="M2.7 2.93l1 .27c.53.25.62.9.62.9l.76-.14c-.15-.61-.32-.92-1.06-1.32-.34-.12-.8-.3-1.33.3z" fill="#d38d5f"/>
  <path d="M3.77 6l-.13-.5s.18-.1.15-.28l.13-.03c.08.16.26.18.26.18l.12.48c-.15.14-.27.2-.53.16z" fill="#ac9393"/>
  <path d="M3.67 5.95c.35-.02.45-.01.7-.18l.14.62c-.3.19-.4.17-.71.15z" fill="#d38d5f"/>
  <path d="M4.35 3.54c.27.48.34.63.35 1.25 0 0 .25-.05.25-.09-.06-.58-.03-.72-.37-1.24z" fill="#803300"/>
  <path d="M3.79 5.22l.13-.03-.03-.12-.14.04zM4.76 4.61l.03.3.1-.02-.01-.3z" fill="#483737"/>
  <path d="M.79 6.08c-.07 0-.13.02-.15.12-.1.18.05.25.3.32-.3.56-.1.66.28.47-.02.29.25.42.5.1.01.45.28.32.38.19.15-.31.1-.54.14-.73-.04 0 .64-1.37.67-1.66a.68.68 0 00.06-.32c-.53.1-.8.09-1.31-.05v.3s-.5 1.08-.54 1.28C1 6.13.88 6.08.79 6.08z" fill="#fbecd8"/>
  <path d="M.78 1C.68 1 .6 1.1.6 1.25c0 .12.1.18.18.18.1 0 .16-.09.16-.2C.95 1.13.87 1 .78 1z" fill="#fff"/>
  <path d="M.73 1.2c-.04 0-.09.06-.09.1 0 .05.07.1.11.1.05 0 .09-.06.09-.1 0-.07-.05-.1-.11-.1zM1.43 1.88c-.03 0-.06.01-.08.06-.16.4-.32.41-.71.38.42.07.33.12.5.22a.23.23 0 01-.06-.06s.08-.03.1-.1c.04.03.1.02.1.02a.57.57 0 01-.13.14c.3-.23.1-.45.33-.65l-.05-.01z"/>
  <path d="M1.08 2.48s.08-.03.1-.1c.04.03.1.02.1.02-.05.08-.13.14-.13.14s-.05-.02-.07-.06z" fill="#d40000"/>
  <path d="M2.05 1.66c-.11-.29-.04-.56-.18-.7-.03-.26-.46-.37-.7-.27C1.17.7.84.37.46.5.52.19 1.2.07 1.2.07c.45-.1.64-.06.95-.01.37-.03.48.2.48.2.15.05.34.08.43.19.1.1.08.29.18.37 0 0 .16.05.23.18.06.1.03.29.04.42 0 0 .08.17.07.37 0 .13-.09.27-.14.4-.07.24 0 .22-.07.37-.08.21-.34.34-.34.34l-.45-.19s-.2-.17-.59 0c0 0 .1-.5.07-.8.28.09.39-.08.41-.26 0 0-.13-.34-.42.02z" fill="#520"/>
</svg>