<svg xmlns="http://www.w3.org/2000/svg" width="19.94" height="39.83" viewBox="0 0 5.28 10.54">
  <path d="M4.14 3.66l.17 1.07s.52.7.5 1.82c-1.98.23-2.11.28-3.79-.04.09-1.21.3-1.67.3-1.67s.36-1.2.9-1.7h1.02c.24.13.43.42.9.52z" fill="#59f"/>
  <path d="M3.24 3.13L4.02 3l.08.66c-.44-.1-.62-.38-.86-.52z" fill="#fbecd8"/>
  <path d="M1.1 6.52c1.57.3 1.76.26 3.6.04-.4 1.99-3.32 2.16-3.6-.04z" fill="#a05a2c"/>
  <path d="M3.9 9.89c.22.01.4.02.48.04.24.1.34.2.3.48 0 0-1.38.31-3.09-.04l.21-.59c.45.02 1.8-.02 1.8-.02.08.07.07.12.3.13z" fill="#c44f00"/>
  <path d="M2.18 6.96c.42-.37 1.38-.13 1.43.07 0 0 .55 1.1.5 1.66-.05.2-.06.18-.07.3-.77.04-.92.06-2.14 0l.02-.24a2 2 0 01.26-1.8z" fill="#a05a2c"/>
  <path d="M3.52 9.76c-.72.05-.97.06-1.6.03l.1-.8c.58.02.92.03 1.81 0zM4.53.48c.2.2.36.5.4.96 0 0 .33-.1.35.24-.02.39-.3.24-.3.24-.07.8-.51 1.2-1.8 1.24-.34 0-.6-.13-.8-.32l.31-.14s.2-.17.6 0c0 0-.1-.5-.08-.8-.28.09-.38-.08-.4-.26 0 0 .13-.34.41.02.12-.29.05-.56.19-.7.03-.26.46-.37.7-.27 0 0 .17-.17.42-.21z" fill="#fbecd8"/>
  <path d="M2.31 3.4s.57-.6 1.38.01c.08.32.06 1.06.06 1.06-.57.2-.95.26-1.51.07-.02-.53.07-1.14.07-1.14z" fill="#59f"/>
  <path d="M2.3 3.28a4 4 0 011.33.6c.25.29.39.83.4 1.2-.03.54-.59 1.02-1.08 1.13-.54.06-1.19-.1-1.19-.1l-.12.33s.89.13 1.37.01c.66-.23 1.22-.73 1.24-1.34-.02-.56-.18-1.13-.48-1.4a2.89 2.89 0 00-1.4-.68c-.04.09-.07.16-.07.25z" fill="#520"/>
  <path d="M2.6 3.43c-.64 1.47-.82 3.44-.82 3.44A1.9 1.9 0 010 6.6c.05-1.45 0-2.8 1.02-3.53.61-.17 1.07-.58 1.56-.13z" fill="#c87137"/>
  <path d="M2.58 2.93l-1 .27c-.54.25-.62.9-.62.9L.2 3.96c.14-.61.32-.92 1.06-1.32.34-.12.8-.3 1.32.3z" fill="#d38d5f"/>
  <path d="M1.5 6l.14-.5s-.18-.1-.15-.28l-.13-.03c-.08.16-.26.18-.26.18l-.12.48c.14.14.26.2.52.16z" fill="#ac9393"/>
  <path d="M1.6 5.95c-.34-.02-.44-.01-.7-.18l-.14.62c.3.19.4.17.72.15z" fill="#d38d5f"/>
  <path d="M.93 3.54c-.28.48-.34.63-.36 1.25 0 0-.25-.05-.24-.09.06-.58.03-.72.36-1.24z" fill="#803300"/>
  <path d="M1.49 5.22l-.13-.03.02-.12.14.04zM.51 4.61l-.02.3-.11-.02.02-.3z" fill="#483737"/>
  <path d="M4.5 6.08c.06 0 .11.02.14.12.1.18-.05.25-.31.32.3.56.1.66-.28.47.02.29-.24.42-.49.1-.02.45-.28.32-.38.19-.16-.31-.1-.54-.14-.73.04 0-.64-1.37-.67-1.66a.68.68 0 01-.06-.32c.52.1.8.09 1.3-.05v.3s.5 1.08.55 1.28c.1.03.23-.02.33-.02z" fill="#fbecd8"/>
  <path d="M4.5 1c.09.01.17.11.16.25 0 .12-.09.18-.17.18-.1 0-.17-.09-.16-.2 0-.1.07-.23.17-.23z" fill="#fff"/>
  <path d="M4.55 1.2c.04 0 .09.06.08.1 0 .05-.06.1-.1.1-.06 0-.09-.06-.09-.1 0-.07.05-.1.1-.1zM3.85 1.88c.02 0 .05.01.08.06.16.4.32.41.71.38-.42.07-.33.12-.5.22l.06-.06s-.08-.03-.1-.1c-.04.03-.1.02-.1.02.05.08.13.14.13.14-.3-.23-.1-.45-.34-.65l.06-.01z"/>
  <path d="M4.2 2.48s-.08-.03-.1-.1c-.04.03-.1.02-.1.02.05.08.13.14.13.14s.04-.02.07-.06z" fill="#d40000"/>
  <path d="M3.22 1.66c.12-.29.05-.56.19-.7.03-.26.46-.37.7-.27 0 0 .33-.32.7-.2-.05-.31-.73-.43-.73-.43a2.1 2.1 0 00-.96-.01c-.36-.03-.48.2-.48.2-.14.05-.34.08-.42.19-.1.1-.08.29-.18.37 0 0-.17.05-.24.18-.06.1-.03.29-.03.42 0 0-.08.17-.07.37 0 .13.08.27.14.4.06.24 0 .22.07.37.07.21.34.34.34.34l.44-.19s.2-.17.6 0c0 0-.1-.5-.08-.8-.28.09-.38-.08-.4-.26 0 0 .13-.34.41.02z" fill="#520"/>
</svg>