<svg width="210mm" height="297mm" version="1.1" viewBox="0 0 210 297" xmlns="http://www.w3.org/2000/svg"><g><path d="m91.618-32.202h-0.99976l-1.6796-4.199-1.6396-1.0997-0.69983 0.8298-0.91978-1.2697-1.7396 1.4996c-0.19995 0.57986-0.73982 1.7196-0.97976 2.3794l-0.67984 1.8595h-0.87978l0.8398-2.3594 0.21995-1.6796 0.35991 0.34991 1.6996-3.8291 0.34992-2.0995 0.33992 0.57986 0.57986-2.1595 0.37991 0.34991 0.61985-0.8198 1.8995 4.7788 0.58986-0.85979 0.22994 2.6294 1.1197 3.0593 0.43989-0.75982 0.21995 1.9095zm-3.0992-5.3287-1.9995-4.8288-2.2095 4.7488 1.6296-1.4396 0.61985 1.2797 0.56986-0.61985z" stroke-width=".99976"/></g></svg>
