<svg width="153.64" height="60.76" viewBox="0 0 40.65 16.08" xmlns="http://www.w3.org/2000/svg">
  <g stroke-width=".26">
    <path d="M10.22 14.27h-1l-1.68-4.2-1.64-1.1-.7.83-.92-1.27-1.74 1.5c-.2.58-.74 1.72-.98 2.38l-.68 1.86H0l.84-2.36.22-1.68.36.35 1.7-3.83.35-2.1.34.58.58-2.16.38.35.62-.82 1.9 4.78.59-.86.23 2.63 1.12 3.06.44-.76.22 1.91zm-3.1-5.33l-2-4.83-2.21 4.75 1.63-1.44.62 1.28.57-.62zm4.91 5.04l.67.1v.2h-2.01v-.2l.66-.1v-5.3l-.66-.1V8.4h1.34zm1.47-3.3l-.45-.1v-.2h1.1v.23q.17-.14.46-.23.3-.1.6-.1.74 0 1.15.52.4.52.4 1.49 0 .98-.44 1.52-.44.55-1.28.55-.47 0-.9-.1.03.3.03.47v1.05l.68.1v.2H13v-.2l.5-.1zm2.52 1.6q0-.79-.26-1.17-.25-.4-.78-.4-.48 0-.8.14v3.11q.36.07.8.07 1.04 0 1.04-1.74zm2.64-3.16q0 .18-.13.31-.13.14-.32.14-.18 0-.31-.14-.13-.13-.13-.31 0-.19.13-.32t.31-.13q.19 0 .32.13t.13.32zm-.04 4.86l.67.1v.2h-2.02v-.2l.67-.1v-3.3l-.55-.1v-.2h1.23zm2.17-3.28q.31-.18.67-.3.36-.12.6-.12.5 0 .76.3t.26.85v2.55l.47.1v.2h-1.67v-.2l.51-.1V11.5q0-.34-.17-.53-.16-.2-.51-.2-.38 0-.92.12v3.1l.53.1v.18h-1.68v-.18l.47-.1v-3.31l-.47-.1v-.2h1.1zm1.96-7.36v.88h3.54v2.5l-2.56.02v.88l2.56-.02v6.72h.9V7.6l2.43-.02v-.89l-2.43.03v-2.5h3.54v-.88h-3.99z"/>
    <path d="M29.25 13.08q0 .71.66.71.51 0 .96-.13V10.6l-.59-.1v-.19h1.27v3.6l.5.1v.19H30.9l-.04-.32q-.29.16-.67.28-.39.12-.65.12-.99 0-.99-1.14V10.6l-.5-.1v-.19h1.19zm4.27-2.46q.32-.19.68-.3.36-.12.6-.12.5 0 .76.3.26.29.26.84v2.56l.47.1v.19h-1.67V14l.51-.1v-2.48q0-.35-.17-.54-.16-.2-.51-.2-.38 0-.92.12v3.1l.53.1v.19h-1.68V14l.47-.1v-3.3l-.47-.11v-.19h1.1zm4.32 1.69l1.6-1.71-.41-.11v-.19h1.37v.19l-.48.1-1.11 1.13 1.42 2.19.42.1v.18h-1.59V14l.36-.1-1.07-1.68-.51.56v1.12l.41.1v.19h-1.59V14l.5-.1V8.6l-.58-.1v-.2h1.26zM21.63 1.23a6.3 6.3 0 00-.45 6.83l.67-.42a5.54 5.54 0 01.43-5.98zm10.14.03l-.66.44a5.52 5.52 0 01.37 6.02l.65.44a6.3 6.3 0 00-.36-6.9z"/>
    <path d="M19.76 0a8.45 8.45 0 00-.5 9.26l.9-.56a7.41 7.41 0 01.48-8.12zm13.78.1l-.88.58a7.4 7.4 0 01.38 8.07l.88.59a8.45 8.45 0 00-.38-9.25z"/>
  </g>
</svg>
